<svg width="64" height="64" xmlns="http://www.w3.org/2000/svg">

 <title/>
 <g>
  <title>background</title>
  <rect fill="none" id="canvas_background" height="402" width="582" y="-1" x="-1"/>
 </g>
 <g>
  <title>Layer 1</title>
  <path fill="#31d69c" id="svg_1" d="m45.76,11c-3,-3.66 -8.91,-5.56 -12.44,-5.41s-10.53,1.22 -13.63,4.72s-4,7.63 -4.34,11.38s0.41,6.66 4.94,13.75a31.43,31.43 0 0 0 11.09,10.37l-0.16,2.09a3.88,3.88 0 0 0 -1.56,0.47a5.48,5.48 0 0 0 -2.41,2.06c-0.56,1 -0.37,1.59 0.38,1.91a1,1 0 0 0 1.25,-0.22c0.25,-0.16 0.13,-0.47 0,-0.75s-0.09,-0.53 0.34,-1a4.24,4.24 0 0 1 1.53,-0.78a16.13,16.13 0 0 0 -0.25,2.31a7.29,7.29 0 0 0 0.34,2.53l0.16,1.85a5.32,5.32 0 0 0 -2.25,-0.37c-0.91,0.16 -1,1.94 -0.87,2.28s3.84,0.16 4,0a27.54,27.54 0 0 0 0,-3.59c0,-0.16 0.75,0 0.84,0.06s-0.06,2.94 0,3.47s2.66,0.19 3.22,0.09s0.44,-0.94 0.28,-1.66s-2.53,-0.56 -2.53,-0.56l0,-1.66s0.22,0.06 0.5,-0.81a20.78,20.78 0 0 0 0.16,-4a0.76,0.76 0 0 1 0.59,0.25a6,6 0 0 1 0.44,1.78a2.18,2.18 0 0 0 1,1.47a1.33,1.33 0 0 0 1.69,-0.72c0.25,-0.62 -1.41,-2.47 -2,-3.09a8,8 0 0 0 -2.07,-1.22l-0.09,-2.28s2.38,-0.53 3,-0.78s1.81,-0.5 4.38,-3.84s4.91,-8.84 6.56,-14.81s0.94,-11.66 -2.09,-15.29zm-12.76,42.59c-0.41,0.13 -1.25,0.25 -1.44,-0.09s0.25,-7.22 1,-7.22c0.22,0 0.69,0 0.72,1.47s0.16,5.72 -0.28,5.84zm11.38,-22.59a49.84,49.84 0 0 1 -3.38,6.5s-0.62,-1 -0.78,-1s-0.66,0.22 -0.53,0.34s1,1.15 0.88,1.37s-0.94,1.41 -0.94,1.41s-0.71,-1.11 -0.8,-1.08s-0.6,0.14 -0.45,0.42s0.94,1.16 0.81,1.38a3.34,3.34 0 0 1 -0.69,0.78c-0.19,0.13 -1.22,-1.26 -1.31,-1.26s-0.41,0 -0.47,0.22s1.09,1.64 1,1.82a5.6,5.6 0 0 1 -1.16,1l-0.25,0.09a24,24 0 0 0 -1.55,-2.23c-0.12,0 -0.69,0.19 -0.59,0.41s1.49,2 1.33,2.14a6.87,6.87 0 0 1 -1.25,0.5s-0.99,-1.81 -1.18,-1.81s-0.66,0.19 -0.62,0.34s0.72,1.59 0.72,1.59a3.74,3.74 0 0 1 -2.66,-0.5c-1.19,-0.75 -5.44,-5 -8.87,-9.28a19.85,19.85 0 0 1 -4.19,-12.91c0.13,-3.56 2.38,-9.28 5.94,-11.34a21.5,21.5 0 0 1 13.43,-2.18a12.46,12.46 0 0 1 9.59,8.53c1.31,4.16 -0.94,11.94 -2.03,14.75zm-21.56,-15.31c0.28,-0.16 0.41,-1 0.75,-1.81s1.94,-1.59 2,-1.69s-0.16,-0.84 -0.34,-0.91s-1.23,0.25 -2.32,1.72a5.37,5.37 0 0 0 -1.19,2.44a1,1 0 0 0 1.1,0.25zm12.68,19.9c-0.3,-0.1 -1,0.35 -1.85,0.66s-2.48,-0.37 -2.59,-0.35s-0.52,0.68 -0.44,0.86s1,0.74 2.8,0.58a5.37,5.37 0 0 0 2.6,-0.75a1,1 0 0 0 -0.52,-1zm-4.5,-10.37c-1.94,-3.91 -5.49,-5.25 -6.91,-5.09a4.91,4.91 0 0 0 -3.25,1.56c-0.69,0.72 -0.81,3.13 1.53,6s4.38,3.41 6.44,3.47s4.19,-2.03 2.19,-5.94zm8.72,-5.09c-4.84,2.43 -5.72,5.43 -5.53,7.87s2.41,2.53 4.81,1.88a7.35,7.35 0 0 0 5.34,-6.37c0.42,-3.63 -3.02,-4.17 -4.58,-3.38l-0.04,0z" class="cls-1"/>
 </g>
</svg>