<svg xmlns="http://www.w3.org/2000/svg" xmlns:xlink="http://www.w3.org/1999/xlink" width="57" height="57" viewBox="0 0 57 57">
  <defs>
    <filter id="filter-2" width="200%" height="200%" x="-50%" y="-50%" color-interpolation-filters="sRGB" filterUnits="userSpaceOnUse">
      <feOffset dx="0" dy="4" in="SourceAlpha" result="shadow-1-feOffset-shadow"/>
      <feGaussianBlur in="shadow-1-feOffset-shadow" result="shadow-1-feGaussianBlur-shadow" stdDeviation="6.627"/>
      <feColorMatrix in="shadow-1-feGaussianBlur-shadow" result="shadow-1-feColorMatrix-shadow" type="matrix" values="0 0 0 0 1  0 0 0 0 0.45098039215686275  0 0 0 0 0  0 0 0 0.35 0"/>
    </filter>
    <rect id="rect-3" width="35" height="35" x="11" y="7"/>
    <mask id="mask-4" maskContentUnits="userSpaceOnUse" maskUnits="userSpaceOnUse">
      <rect width="57" height="57" x="0" y="0" fill="black"/>
      <use fill="white" xlink:href="#rect-3"/>
    </mask>
    <linearGradient id="linearGradient-6" x1="17.271" x2="44.542" y1="20.008" y2="35.087" gradientUnits="userSpaceOnUse">
      <stop offset="0" stop-color="rgb(255,108,2)"/>
      <stop offset=".56" stop-color="rgb(255,138,1)"/>
      <stop offset="1" stop-color="rgb(255,108,2)"/>
    </linearGradient>
  </defs>
  <g>
    <rect width="35" height="35" x="11" y="7" fill="black" filter="url(#filter-2)" rx="64" ry="64"/>
    <use fill="none" xlink:href="#rect-3"/>
    <g mask="url(#mask-4)">
      <path fill="url(#linearGradient-6)" fill-rule="evenodd" d="M31.35542806 14.4170812c.50165812-.07436753 1.00767771-.12541453 1.51957194-.12541453 6.432724 0 11.66666667 5.8887418 11.66666667 13.125 0 7.23625819-5.23394267 13.125-11.66666667 13.125h-8.75c-6.432724 0-11.66666667-5.88874181-11.66666667-13.125 0-7.2362582 5.23394267-13.125 11.66666667-13.125.98293304 0 1.94690704.1502037 2.88604736.42292912-.15167236-1.06023788-1.0558319-1.88126246-2.1568807-1.88126246-.40250142 0-.72916666-.32666524-.72916666-.72916666V9.1875c0-.40250142.32666524-.72916667.72916667-.72916667 3.41253916 0 6.19061788 2.62645086 6.50126139 5.95874787zM18.40390778 24.84268697c-.14143626.22461573-.14873505.50753276-.0203832.73940277.12835184.23187002.37188212.3762436.63730875.3762436H26.3125c.26533763 0 .5089569-.14437358.64015706-.3762436.12835185-.23044586.12105306-.51478704-.0203832-.73940277l-3.64583333-5.83333333c-.26685079-.42582194-.96984863-.42582194-1.23669942 0l-3.64583333 5.83333333zM30.6875 25.95833333h7.32086182c.40250142 0 .72916666-.32666524.73059082-.72916666 0-.21001816-.0889206-.40103277-.23187002-.53374609l-3.55539958-5.68606694c-.26685078-.42582194-.96984863-.42582194-1.23669942 0l-3.64583333 5.83333333c-.14143626.22461573-.14873505.50753276-.0203832.73940277.129776.23187002.37330627.3762436.63873291.3762436zm1.98767344 8.99353028l-.07868449-.53810756c-.027771-.19105911-.129776-.36458333-.28589884-.47980626-.15452067-.11517843-.3484726-.16333262-.54100037-.13707479l-2.88604736.41999181c-.3995641.0583458-.67522685.4272906-.61683655.82543055l.16475678 1.1243693c-.63730876-.00583012-1.26580557-.08749643-1.8797938-.24353027l.37045796-.68977991c.1910146-.35439174.05830129-.79627991-.2975591-.98729452l-2.56810506-1.38249715c-.16920726-.09190242-.37045797-.11086146-.5541738-.05687714-.18522898.05540848-.3412628.18229167-.43312072.35287857l-.27272542.5060641c-.82102458-.92894872-1.34164175-2.02852885-1.51227316-3.19958369h14.4448344c-.26987712 1.80689494-1.37671153 3.4314537-3.05383047 4.48581696z"/>
    </g>
  </g>
</svg>
